{
    "asset" : {
        "generator" : "Khronos glTF Blender I/O v1.7.33",
        "version" : "2.0"
    },
    "scene" : 0,
    "scenes" : [
        {
            "name" : "Scene",
            "nodes" : [
                0
            ]
        }
    ],
    "nodes" : [
        {
            "mesh" : 0,
            "name" : "Cylinder",
            "scale" : [
                0.18827450275421143,
                0.18827450275421143,
                0.18827450275421143
            ]
        }
    ],
    "materials" : [
        {
            "doubleSided" : true,
            "name" : "turbine",
            "normalTexture" : {
                "index" : 0,
                "scale" : 0.40000003576278687
            },
            "pbrMetallicRoughness" : {
                "baseColorTexture" : {
                    "index" : 1
                },
                "metallicFactor" : 0,
                "roughnessFactor" : 0.7795454263687134
            }
        }
    ],
    "meshes" : [
        {
            "name" : "Cylinder",
            "primitives" : [
                {
                    "attributes" : {
                        "POSITION" : 0,
                        "NORMAL" : 1,
                        "TEXCOORD_0" : 2
                    },
                    "indices" : 3,
                    "material" : 0
                }
            ]
        }
    ],
    "textures" : [
        {
            "sampler" : 0,
            "source" : 0
        },
        {
            "sampler" : 0,
            "source" : 1
        }
    ],
    "images" : [
        {
            "mimeType" : "image/png",
            "name" : "WindTurbine",
            "uri" : "WindTurbine.png"
        },
        {
            "mimeType" : "image/png",
            "name" : "WindTurbine-Dif",
            "uri" : "WindTurbine-Dif.png"
        }
    ],
    "accessors" : [
        {
            "bufferView" : 0,
            "componentType" : 5126,
            "count" : 1594,
            "max" : [
                2.868938446044922,
                25.753620147705078,
                10.135586738586426
            ],
            "min" : [
                -2.920506715774536,
                0.17493820190429688,
                -5.616128444671631
            ],
            "type" : "VEC3"
        },
        {
            "bufferView" : 1,
            "componentType" : 5126,
            "count" : 1594,
            "type" : "VEC3"
        },
        {
            "bufferView" : 2,
            "componentType" : 5126,
            "count" : 1594,
            "type" : "VEC2"
        },
        {
            "bufferView" : 3,
            "componentType" : 5123,
            "count" : 2478,
            "type" : "SCALAR"
        }
    ],
    "bufferViews" : [
        {
            "buffer" : 0,
            "byteLength" : 19128,
            "byteOffset" : 0
        },
        {
            "buffer" : 0,
            "byteLength" : 19128,
            "byteOffset" : 19128
        },
        {
            "buffer" : 0,
            "byteLength" : 12752,
            "byteOffset" : 38256
        },
        {
            "buffer" : 0,
            "byteLength" : 4956,
            "byteOffset" : 51008
        }
    ],
    "samplers" : [
        {
            "magFilter" : 9729,
            "minFilter" : 9987
        }
    ],
    "buffers" : [
        {
            "byteLength" : 55964,
            "uri" : "wind_turbine.bin"
        }
    ]
}
